<svg width="18" height="18" viewBox="0 0 18 18" fill="none" xmlns="http://www.w3.org/2000/svg">
<path d="M9.18 2.22375C9.09669 2.22389 9.01445 2.24253 8.93922 2.27833C8.86399 2.31413 8.79765 2.36619 8.745 2.43075L8.7015 2.463C7.88595 2.21522 7.01856 2.19265 6.19122 2.3977C5.36389 2.60275 4.60744 3.02778 4.002 3.62775C3.46584 4.15915 3.06712 4.8131 2.84027 5.53309C2.61343 6.25309 2.56528 7.01749 2.7 7.76025L2.68875 7.7715L1.97025 8.48475C1.82206 8.63185 1.70445 8.80682 1.62418 8.99958C1.54392 9.19234 1.5026 9.39908 1.5026 9.60788C1.5026 9.81668 1.54392 10.0234 1.62418 10.2162C1.70445 10.4089 1.82206 10.5839 1.97025 10.731C2.14489 10.9041 2.35697 11.0348 2.59013 11.113C2.8233 11.1911 3.0713 11.2147 3.315 11.1818C3.40188 11.4981 3.58402 11.78 3.83668 11.9892C4.08935 12.1983 4.40028 12.3247 4.72725 12.351C4.76085 12.7356 4.93258 13.095 5.21068 13.3627C5.48878 13.6305 5.85442 13.7885 6.24 13.8075C6.2595 14.187 6.41475 14.5605 6.7065 14.85C7.2765 15.417 8.1705 15.4658 8.79675 14.9978L9.087 15.2858C9.38901 15.5853 9.79714 15.7534 10.2225 15.7534C10.6479 15.7534 11.056 15.5853 11.358 15.2858C11.6355 15.009 11.7907 14.6573 11.823 14.2973C12.1972 14.2653 12.5481 14.1025 12.8142 13.8375C13.0802 13.5725 13.2445 13.2223 13.278 12.8483C13.6076 12.8177 13.9196 12.6856 14.1708 12.4701C14.4221 12.2546 14.6002 11.9664 14.6805 11.6453C14.9205 11.6738 15.1639 11.6477 15.3925 11.569C15.6211 11.4903 15.8289 11.361 16.0005 11.1908C16.1486 11.0437 16.2661 10.8687 16.3463 10.6761C16.4265 10.4834 16.4678 10.2767 16.4678 10.068C16.4678 9.85929 16.4265 9.65264 16.3463 9.45995C16.2661 9.26726 16.1486 9.09234 16.0005 8.94525L15.3757 8.3235L15.5047 7.824C15.784 6.73701 15.6434 5.58472 15.111 4.59675C14.7237 3.87948 14.1495 3.28042 13.4493 2.86316C12.749 2.44589 11.9489 2.22598 11.1337 2.22675H9.9285C9.87703 2.22443 9.82552 2.22343 9.774 2.22375H9.18ZM11.3737 5.9325L13.9717 8.51325L13.974 8.517L13.9845 8.52675L15.2032 9.738C15.2468 9.78123 15.2813 9.83264 15.3049 9.88927C15.3285 9.94591 15.3406 10.0067 15.3406 10.068C15.3406 10.1294 15.3285 10.1901 15.3049 10.2467C15.2813 10.3034 15.2468 10.3548 15.2032 10.398C15.1148 10.4855 14.9954 10.5345 14.871 10.5345C14.7466 10.5345 14.6272 10.4855 14.5387 10.398L13.32 9.18675C13.2138 9.0816 13.0704 9.0226 12.921 9.0226C12.7716 9.0226 12.6282 9.0816 12.522 9.18675L12.51 9.1995C12.4576 9.25138 12.4161 9.31312 12.3877 9.38116C12.3594 9.44919 12.3447 9.52217 12.3447 9.59588C12.3447 9.66959 12.3594 9.74257 12.3877 9.8106C12.4161 9.87863 12.4576 9.94037 12.51 9.99225L13.4595 10.9358C13.5033 10.979 13.538 11.0305 13.5617 11.0873C13.5854 11.1441 13.5977 11.205 13.5977 11.2665C13.5977 11.328 13.5854 11.389 13.5617 11.4457C13.538 11.5025 13.5033 11.554 13.4595 11.5973C13.3792 11.6767 13.2731 11.7248 13.1604 11.7328C13.0477 11.7408 12.9359 11.7081 12.8452 11.6408C12.7361 11.5592 12.6011 11.5197 12.4652 11.5294C12.3293 11.5392 12.2014 11.5976 12.105 11.694C12.0089 11.7901 11.9512 11.9179 11.9426 12.0535C11.9341 12.1891 11.9753 12.3231 12.0585 12.4305C12.1277 12.5203 12.1617 12.6323 12.1541 12.7454C12.1465 12.8586 12.0978 12.965 12.0172 13.0448C11.9357 13.1255 11.8276 13.1739 11.7131 13.1808C11.5985 13.1877 11.4854 13.1527 11.3947 13.0823C11.2863 12.9977 11.1509 12.9554 11.0136 12.9633C10.8763 12.9711 10.7466 13.0286 10.6485 13.125C10.5508 13.2212 10.4919 13.3499 10.483 13.4867C10.4742 13.6235 10.516 13.7588 10.6005 13.8668C10.6714 13.958 10.7064 14.0719 10.6989 14.1872C10.6914 14.3024 10.642 14.411 10.56 14.4923C10.4701 14.5811 10.3489 14.6309 10.2225 14.6309C10.0961 14.6309 9.97486 14.5811 9.885 14.4923L9.606 14.2155L9.68475 14.1368C9.83283 13.9897 9.95034 13.8147 10.0305 13.6221C10.1107 13.4294 10.152 13.2227 10.152 13.014C10.152 12.8053 10.1107 12.5986 10.0305 12.406C9.95034 12.2133 9.83283 12.0383 9.68475 11.8913C9.40425 11.612 9.03008 11.4468 8.63475 11.4278C8.61319 11.0425 8.45291 10.678 8.18353 10.4018C7.91414 10.1255 7.55385 9.95604 7.16925 9.92475C7.1388 9.54904 6.97461 9.19672 6.7065 8.93176C6.53186 8.75862 6.31978 8.62794 6.08661 8.54978C5.85345 8.47163 5.60545 8.4481 5.36175 8.481C5.2669 8.1356 5.05871 7.83209 4.77063 7.61922C4.48255 7.40636 4.13128 7.29649 3.77325 7.30725C3.71602 6.77971 3.77863 6.24606 3.95641 5.74609C4.13419 5.24612 4.42256 4.79273 4.8 4.41975C5.15159 4.07066 5.57187 3.7984 6.03419 3.62024C6.49652 3.44207 6.99081 3.36189 7.48575 3.38475L6.363 4.2345C6.18055 4.37259 6.0272 4.54539 5.91179 4.74296C5.79637 4.94054 5.72116 5.15898 5.69049 5.38573C5.65982 5.61248 5.67429 5.84306 5.73308 6.0642C5.79186 6.28533 5.89379 6.49266 6.033 6.67425C6.31416 7.04076 6.72884 7.28121 7.18659 7.34317C7.64434 7.40514 8.10802 7.28357 8.4765 7.005L9.89325 5.93175L11.3737 5.9325ZM7.04175 5.13225L9.396 3.34875H9.774C9.82078 3.34855 9.86755 3.3498 9.91425 3.3525H11.1337C11.7456 3.35168 12.3463 3.51648 12.8721 3.82942C13.3979 4.14236 13.8292 4.59178 14.1202 5.13C14.4915 5.82 14.6077 6.6135 14.4532 7.37625L12.045 4.97925C11.9926 4.92498 11.9298 4.8818 11.8603 4.85229C11.7909 4.82279 11.7162 4.80755 11.6407 4.8075H9.705C9.58235 4.80745 9.46304 4.84748 9.36525 4.9215L7.79775 6.10875C7.66629 6.20796 7.50098 6.25124 7.33777 6.22919C7.17457 6.20714 7.02667 6.12154 6.92625 5.991C6.87721 5.9271 6.8413 5.85412 6.82059 5.77627C6.79988 5.69843 6.79478 5.61725 6.80558 5.53743C6.81639 5.4576 6.84289 5.3807 6.88355 5.31116C6.92421 5.24162 6.97823 5.18082 7.0425 5.13225M4.527 11.0978C4.48346 11.0545 4.44891 11.0031 4.42532 10.9465C4.40174 10.8898 4.3896 10.8291 4.3896 10.7678C4.3896 10.7064 4.40174 10.6457 4.42532 10.589C4.44891 10.5324 4.48346 10.481 4.527 10.4378L5.24475 9.72525C5.3332 9.63777 5.45259 9.58871 5.577 9.58871C5.70141 9.58871 5.82079 9.63777 5.90925 9.72525C5.99593 9.81148 6.04516 9.92839 6.04629 10.0506C6.04741 10.1729 6.00033 10.2907 5.91525 10.3785L5.90925 10.3853L5.1915 11.0978L5.18475 11.1045C5.09582 11.1892 4.97743 11.2359 4.85466 11.2348C4.73188 11.2336 4.61437 11.1848 4.527 11.0985M4.15875 8.5725C4.24341 8.66047 4.29007 8.77821 4.28867 8.90029C4.28727 9.02237 4.23791 9.139 4.15125 9.225L3.4335 9.939C3.34504 10.0265 3.22566 10.0755 3.10125 10.0755C2.97684 10.0755 2.85745 10.0265 2.769 9.939C2.72546 9.89578 2.69091 9.84437 2.66732 9.78773C2.64374 9.7311 2.6316 9.67035 2.6316 9.609C2.6316 9.54766 2.64374 9.48691 2.66732 9.43027C2.69091 9.37364 2.72546 9.32223 2.769 9.279L3.4875 8.56575C3.57595 8.47827 3.69534 8.42921 3.81975 8.42921C3.94416 8.42921 4.06354 8.47827 4.152 8.56575L4.15875 8.5725ZM8.16975 14.058C8.08129 14.1455 7.96191 14.1945 7.8375 14.1945C7.71309 14.1945 7.5937 14.1455 7.50525 14.058C7.46171 14.0148 7.42716 13.9634 7.40357 13.9067C7.37999 13.8501 7.36785 13.7894 7.36785 13.728C7.36785 13.6667 7.37999 13.6059 7.40357 13.5493C7.42716 13.4926 7.46171 13.4412 7.50525 13.398L8.223 12.6848C8.31145 12.5973 8.43084 12.5482 8.55525 12.5482C8.67966 12.5482 8.79904 12.5973 8.8875 12.6848C8.93104 12.728 8.96559 12.7794 8.98917 12.836C9.01275 12.8927 9.02489 12.9534 9.02489 13.0148C9.02489 13.0761 9.01275 13.1368 8.98917 13.1935C8.96559 13.2501 8.93104 13.3015 8.8875 13.3448L8.16975 14.058ZM6.654 12.552C6.56554 12.6395 6.44616 12.6885 6.32175 12.6885C6.19734 12.6885 6.07795 12.6395 5.9895 12.552C5.90249 12.4658 5.85298 12.3488 5.85171 12.2264C5.85045 12.1039 5.89754 11.9859 5.98275 11.898L5.9895 11.892L6.70725 11.1788L6.71325 11.172C6.80231 11.0872 6.92091 11.0405 7.04387 11.0418C7.16682 11.043 7.28444 11.0922 7.37175 11.1788C7.41529 11.222 7.44984 11.2734 7.47342 11.33C7.497 11.3867 7.50914 11.4474 7.50914 11.5088C7.50914 11.5701 7.497 11.6308 7.47342 11.6875C7.44984 11.7441 7.41529 11.7955 7.37175 11.8388L6.654 12.552Z" fill="black"/>
</svg>
