<svg width="18" height="18" viewBox="0 0 18 18" fill="none" xmlns="http://www.w3.org/2000/svg">
<path d="M7.03123 8.18648C7.11676 8.1371 7.18778 8.06608 7.23715 7.98054C7.28652 7.89501 7.3125 7.79798 7.31248 7.69922V2.63672C7.31198 2.54704 7.29004 2.45878 7.2485 2.3793C7.20695 2.29982 7.14701 2.23143 7.07366 2.17982C7.00031 2.12822 6.91569 2.0949 6.82685 2.08264C6.73801 2.07039 6.64753 2.07955 6.56295 2.10938C4.92114 2.69045 3.54044 3.83811 2.66906 5.34605C1.79767 6.85399 1.49276 8.62331 1.80912 10.3359C1.82552 10.4245 1.86295 10.5078 1.91825 10.5789C1.97356 10.65 2.04512 10.7068 2.12693 10.7445C2.20066 10.7789 2.28109 10.7967 2.36248 10.7965C2.46121 10.7965 2.55821 10.7706 2.64373 10.7212L7.03123 8.18648ZM6.18748 3.48891V7.37437L2.82092 9.31711C2.81248 9.21094 2.81248 9.10406 2.81248 9C2.81348 7.85979 3.12909 6.74196 3.72457 5.76959C4.32005 4.79722 5.1723 4.00803 6.18748 3.48891ZM16.3125 9C16.313 10.6053 15.7853 12.1662 14.8107 13.4419C13.8362 14.7175 12.4689 15.637 10.9199 16.0585C9.37089 16.48 7.72623 16.38 6.23967 15.774C4.75311 15.1681 3.50727 14.0898 2.69436 12.7055C2.65646 12.6415 2.63161 12.5707 2.62125 12.4971C2.61089 12.4235 2.61521 12.3486 2.63397 12.2767C2.65274 12.2048 2.68557 12.1373 2.73057 12.0781C2.77557 12.019 2.83185 11.9693 2.89615 11.932L8.43748 8.7068V2.25C8.43748 2.10082 8.49674 1.95774 8.60223 1.85225C8.70772 1.74676 8.8508 1.6875 8.99998 1.6875C10.2761 1.68815 11.5298 2.02256 12.6367 2.65754C13.7435 3.29251 14.6651 4.20595 15.3098 5.30719C15.3176 5.31844 15.3246 5.32969 15.3316 5.34164C15.3387 5.35359 15.3457 5.36766 15.352 5.38031C15.9829 6.48223 16.3141 7.73024 16.3125 9Z" fill="#252525"/>
</svg>
