<svg width="30" height="30" viewBox="0 0 30 30" fill="none" xmlns="http://www.w3.org/2000/svg">
<circle cx="15" cy="15" r="15" fill="#D6E9FF"/>
<path d="M18.5508 18.09C18.7984 18.09 19 18.2943 19 18.5451C19 18.7964 18.7984 19.0002 18.5508 19.0002H16.0127C15.7653 18.9999 15.5645 18.7962 15.5645 18.5451C15.5645 18.2944 15.7653 18.0903 16.0127 18.09H18.5508ZM15.1074 11.425C15.5131 10.9045 16.2205 10.8569 16.791 11.3107L17.4463 11.8312C17.7151 12.0415 17.8947 12.3191 17.9561 12.6105C18.0266 12.9309 17.9512 13.2456 17.7393 13.5178L13.834 18.5676C13.6548 18.7969 13.3904 18.9261 13.1074 18.9308L11.5508 18.9504C11.4661 18.9502 11.3959 18.8927 11.377 18.8117L11.0225 17.2775C10.9613 16.9958 11.023 16.7041 11.2021 16.4797L13.9707 12.8967C14.0179 12.8395 14.1026 12.8307 14.1592 12.8732L15.3242 13.8C15.3997 13.862 15.5039 13.8954 15.6123 13.881C15.8432 13.8522 15.9982 13.6416 15.9746 13.4172C15.9604 13.3029 15.9043 13.2075 15.8291 13.1359C15.8057 13.1169 14.7094 12.2374 14.6973 12.2277C14.6265 12.1704 14.6124 12.0655 14.6689 11.9943L15.1074 11.425Z" fill="#0068DD"/>
</svg>
