<svg width="14" height="18" viewBox="0 0 14 18" fill="none" xmlns="http://www.w3.org/2000/svg">
<path d="M6.25 8.25H4M8.5 5.25H4M1 13.9845V6.0405C1 3.9 1 2.8305 1.65925 2.16525C2.31775 1.5 3.379 1.5 5.5 1.5H8.5C10.621 1.5 11.6823 1.5 12.3408 2.16525C13 2.82975 13 3.9 13 6.0405V13.9845C13 15.1177 13 15.6848 12.6535 15.9083C12.0873 16.2728 11.212 15.5077 10.7717 15.2302C10.408 15.0007 10.2265 14.8868 10.024 14.88C9.8065 14.8725 9.62125 14.9827 9.22825 15.2302L7.795 16.134C7.408 16.3777 7.21525 16.5 7 16.5C6.78475 16.5 6.592 16.3777 6.205 16.134L4.7725 15.2302C4.408 15.0007 4.2265 14.8868 4.02475 14.88C3.8065 14.8725 3.62125 14.9827 3.22825 15.2302C2.788 15.5077 1.91275 16.2728 1.34575 15.9083C1 15.6848 1 15.1185 1 13.9845Z" stroke="black" stroke-width="1.2" stroke-linecap="round" stroke-linejoin="round"/>
</svg>
