<svg width="18" height="18" viewBox="0 0 18 18" fill="none" xmlns="http://www.w3.org/2000/svg">
<path d="M1.7677 5.7855L7.0027 9.276C7.72495 9.75675 8.0857 9.9975 8.4757 10.0912C8.8207 10.1737 9.17995 10.1737 9.5242 10.0912C9.9142 9.9975 10.275 9.75675 10.9972 9.276L16.2322 5.7855M5.3677 14.625H12.6322C13.8922 14.625 14.5222 14.625 15.0037 14.3798C15.4268 14.1639 15.7707 13.8197 15.9862 13.3965C16.2322 12.915 16.2322 12.285 16.2322 11.025V6.975C16.2322 5.715 16.2322 5.085 15.9869 4.6035C15.7712 4.18015 15.427 3.83596 15.0037 3.62025C14.5222 3.375 13.8922 3.375 12.6322 3.375H5.3677C4.1077 3.375 3.4777 3.375 2.9962 3.62025C2.57313 3.83609 2.22922 4.18027 2.0137 4.6035C1.7677 5.085 1.7677 5.715 1.7677 6.975V11.025C1.7677 12.285 1.7677 12.915 2.01295 13.3965C2.22866 13.8198 2.57285 14.164 2.9962 14.3798C3.4777 14.625 4.1077 14.625 5.3677 14.625Z" stroke="black" stroke-width="1.2" stroke-linecap="round" stroke-linejoin="round"/>
</svg>
