<svg width="16" height="16" viewBox="0 0 16 16" fill="none" xmlns="http://www.w3.org/2000/svg">
<path d="M13.9152 8.39824L14.9322 9.30387C15.1201 9.46058 15.2455 9.67937 15.286 9.9206C15.3264 10.1618 15.2792 10.4096 15.1527 10.619L13.9265 12.7137C13.8314 12.8741 13.6955 13.0064 13.5327 13.0974C13.3681 13.1885 13.1832 13.2368 12.995 13.238C12.8783 13.2387 12.7621 13.2212 12.6507 13.1862L11.3491 12.7565C11.1211 12.9027 10.8841 13.0336 10.6381 13.1491L10.3648 14.4687C10.3142 14.7115 10.179 14.9284 9.98337 15.0807C9.78527 15.2358 9.53966 15.3177 9.28813 15.3125H6.749C6.49746 15.3177 6.25186 15.2358 6.05375 15.0807C5.85854 14.9282 5.72379 14.7113 5.6735 14.4687L5.399 13.1491C5.15623 13.0321 4.92068 12.9006 4.69363 12.7554L3.3875 13.1862C3.27613 13.2212 3.15999 13.2387 3.04325 13.238C2.85544 13.2366 2.67096 13.1883 2.50663 13.0974C2.34399 13.0067 2.20817 12.8748 2.11288 12.7149L0.842751 10.619C0.710708 10.4077 0.660254 10.1555 0.700846 9.90967C0.741438 9.66383 0.87029 9.44124 1.06325 9.28361L2.07913 7.99999V7.60174L1.06213 6.69611C0.874321 6.5394 0.748837 6.32061 0.70839 6.07938C0.667943 5.83814 0.715207 5.59039 0.841626 5.38099L2.11175 3.28624C2.20689 3.12589 2.34273 2.99354 2.5055 2.90261C2.66983 2.81168 2.85432 2.76334 3.04213 2.76199C3.15781 2.75469 3.27393 2.76532 3.38638 2.79349L4.66663 3.24349C4.89538 3.09724 5.13238 2.96636 5.37763 2.85086L5.65213 1.53124C5.70242 1.28865 5.83716 1.07179 6.03237 0.91924C6.23048 0.764154 6.47609 0.682284 6.72762 0.68749H9.24537C9.49691 0.682284 9.74252 0.764154 9.94063 0.91924C10.1375 1.07336 10.2725 1.29049 10.3209 1.53124L10.5954 2.85086C10.8391 2.96711 11.0742 3.09836 11.3007 3.24461L12.608 2.81486C12.7531 2.76767 12.9064 2.7511 13.0582 2.7662C13.21 2.78131 13.3571 2.82776 13.49 2.90261C13.6531 2.99486 13.7881 3.12761 13.8837 3.28511L15.1527 5.38099C15.2866 5.59049 15.3396 5.84152 15.3019 6.08725C15.2642 6.33297 15.1384 6.55658 14.948 6.71636L13.9152 7.59611V8.39824Z" stroke="#252525" stroke-width="1.2"/>
<path d="M10.8125 8C10.8125 8.74592 10.5162 9.46129 9.98874 9.98874C9.46129 10.5162 8.74592 10.8125 8 10.8125C7.25408 10.8125 6.53871 10.5162 6.01126 9.98874C5.48382 9.46129 5.1875 8.74592 5.1875 8C5.1875 7.25408 5.48382 6.53871 6.01126 6.01126C6.53871 5.48382 7.25408 5.1875 8 5.1875C8.74592 5.1875 9.46129 5.48382 9.98874 6.01126C10.5162 6.53871 10.8125 7.25408 10.8125 8Z" stroke="#252525" stroke-width="1.2"/>
</svg>
