<svg width="30" height="30" viewBox="0 0 30 30" fill="none" xmlns="http://www.w3.org/2000/svg">
<circle cx="15" cy="15" r="15" fill="#EDEDED"/>
<path d="M14.0625 15C14.0625 14.7514 14.1613 14.5129 14.3371 14.3371C14.5129 14.1613 14.7514 14.0625 15 14.0625C15.2486 14.0625 15.4871 14.1613 15.6629 14.3371C15.8387 14.5129 15.9375 14.7514 15.9375 15C15.9375 15.2486 15.8387 15.4871 15.6629 15.6629C15.4871 15.8387 15.2486 15.9375 15 15.9375C14.7514 15.9375 14.5129 15.8387 14.3371 15.6629C14.1613 15.4871 14.0625 15.2486 14.0625 15Z" fill="#30B0C7"/>
<path fill-rule="evenodd" clip-rule="evenodd" d="M10.8333 15C10.8333 15.6834 11.0103 15.9129 11.3645 16.3734C12.0716 17.2917 13.2574 18.3334 14.9999 18.3334C16.7424 18.3334 17.9283 17.2917 18.6353 16.3734C18.9895 15.9134 19.1666 15.6829 19.1666 15C19.1666 14.3167 18.9895 14.0871 18.6353 13.6267C17.9283 12.7084 16.7424 11.6667 14.9999 11.6667C13.2574 11.6667 12.0716 12.7084 11.3645 13.6267C11.0103 14.0875 10.8333 14.3171 10.8333 15ZM14.9999 13.4375C14.5855 13.4375 14.1881 13.6021 13.8951 13.8952C13.602 14.1882 13.4374 14.5856 13.4374 15C13.4374 15.4144 13.602 15.8118 13.8951 16.1049C14.1881 16.3979 14.5855 16.5625 14.9999 16.5625C15.4143 16.5625 15.8117 16.3979 16.1048 16.1049C16.3978 15.8118 16.5624 15.4144 16.5624 15C16.5624 14.5856 16.3978 14.1882 16.1048 13.8952C15.8117 13.6021 15.4143 13.4375 14.9999 13.4375Z" fill="#30B0C7"/>
</svg>
